<svg width="61" height="60" viewBox="0 0 61 60" fill="none" xmlns="http://www.w3.org/2000/svg">
<path d="M36.992 16.992C35.968 16.992 34.912 16.912 33.824 16.752C32.768 16.56 31.696 16.352 30.608 16.128V27.12H37.712V29.952H30.608V48H25.424V15.264C25.264 15.232 25.104 15.216 24.944 15.216C24.816 15.216 24.672 15.216 24.512 15.216C23.68 15.216 22.896 15.328 22.16 15.552C21.424 15.776 20.784 16.16 20.24 16.704C19.728 17.248 19.312 17.984 18.992 18.912C18.704 19.808 18.56 20.944 18.56 22.32C18.56 24.048 18.768 25.504 19.184 26.688C19.632 27.84 20.144 28.656 20.72 29.136C16.912 29.136 15.008 27.04 15.008 22.848C15.008 21.312 15.264 19.888 15.776 18.576C16.288 17.264 17.088 16.128 18.176 15.168C19.264 14.176 20.64 13.408 22.304 12.864C24 12.288 26.016 12 28.352 12C29.152 12 29.904 12.032 30.608 12.096C31.344 12.16 32.048 12.224 32.72 12.288C33.392 12.352 34.08 12.416 34.784 12.48C35.488 12.544 36.24 12.576 37.04 12.576C37.84 12.576 38.592 12.544 39.296 12.48C40 12.384 40.672 12.224 41.312 12C41.248 13.12 41.088 14.016 40.832 14.688C40.608 15.328 40.304 15.824 39.92 16.176C39.536 16.496 39.088 16.72 38.576 16.848C38.096 16.944 37.568 16.992 36.992 16.992Z" fill="black"/>
<rect x="10" y="7.82837" width="4" height="7.13" transform="rotate(-45 10 7.82837)" fill="#F67329"/>
<rect x="46.0435" y="5.56299" width="4" height="7.13293" transform="rotate(45 46.0435 5.56299)" fill="#F67329"/>
<path d="M2.50017 3.5C1.00017 6 0.800175 12.1 12.0002 16.5" stroke="#FFC52F" stroke-width="2"/>
<path d="M58.4976 4C59.9972 6.5 60.1971 12.6 49 17" stroke="#FFC52F" stroke-width="2"/>
</svg>
